<mxfile host="app.diagrams.net" modified="2022-07-31T17:02:51.295Z" agent="5.0 (Macintosh; Intel Mac OS X 10_15_7) AppleWebKit/537.36 (KHTML, like Gecko) Chrome/103.0.0.0 Safari/537.36" etag="0zx2DKZ-oOOVFUXFJ67Z" version="20.2.0" type="github">
  <diagram id="vAXGkXgtHPlE4LyTj8Jy" name="Seite-1">
    <mxGraphModel dx="1869" dy="675" grid="1" gridSize="10" guides="1" tooltips="1" connect="1" arrows="1" fold="1" page="1" pageScale="1" pageWidth="827" pageHeight="1169" math="0" shadow="0">
      <root>
        <mxCell id="0" />
        <mxCell id="1" parent="0" />
        <mxCell id="VFErN84RoGOeLSt--dZl-1" value="" style="endArrow=none;dashed=1;html=1;dashPattern=1 3;strokeWidth=2;fontColor=#4D9900;curved=1;shadow=0;fillColor=#dae8fc;strokeColor=#6c8ebf;startArrow=none;" edge="1" parent="1">
          <mxGeometry width="50" height="50" relative="1" as="geometry">
            <mxPoint x="570" y="480" as="sourcePoint" />
            <mxPoint x="565.199951171875" y="480" as="targetPoint" />
          </mxGeometry>
        </mxCell>
        <mxCell id="VFErN84RoGOeLSt--dZl-3" value="Release branch" style="edgeLabel;html=1;align=center;verticalAlign=middle;resizable=0;points=[];fontSize=11;fontColor=#FF8000;" vertex="1" connectable="0" parent="1">
          <mxGeometry x="-72" y="479" as="geometry" />
        </mxCell>
        <mxCell id="VFErN84RoGOeLSt--dZl-5" value="" style="endArrow=none;dashed=1;html=1;dashPattern=1 3;strokeWidth=2;shadow=0;fontColor=#4D9900;curved=1;fillColor=#e1d5e7;strokeColor=#9673a6;" edge="1" parent="1">
          <mxGeometry width="50" height="50" relative="1" as="geometry">
            <mxPoint x="-40" y="640" as="sourcePoint" />
            <mxPoint x="320" y="640" as="targetPoint" />
          </mxGeometry>
        </mxCell>
        <mxCell id="VFErN84RoGOeLSt--dZl-6" value="feature" style="edgeLabel;html=1;align=center;verticalAlign=middle;resizable=0;points=[];fontColor=#7F00FF;" vertex="1" connectable="0" parent="VFErN84RoGOeLSt--dZl-5">
          <mxGeometry x="-0.9391" relative="1" as="geometry">
            <mxPoint x="-31" as="offset" />
          </mxGeometry>
        </mxCell>
        <mxCell id="VFErN84RoGOeLSt--dZl-8" value="feature" style="edgeLabel;html=1;align=center;verticalAlign=middle;resizable=0;points=[];fontColor=#7F00FF;" vertex="1" connectable="0" parent="1">
          <mxGeometry x="12.99666666666674" y="600" as="geometry">
            <mxPoint x="-73" y="-1" as="offset" />
          </mxGeometry>
        </mxCell>
        <mxCell id="VFErN84RoGOeLSt--dZl-12" value="" style="endArrow=none;dashed=1;html=1;dashPattern=1 3;strokeWidth=2;fontColor=#4D9900;curved=1;shadow=0;fillColor=#d5e8d4;strokeColor=#82b366;" edge="1" parent="1">
          <mxGeometry width="50" height="50" relative="1" as="geometry">
            <mxPoint x="-40" y="560" as="sourcePoint" />
            <mxPoint x="570" y="560" as="targetPoint" />
          </mxGeometry>
        </mxCell>
        <mxCell id="VFErN84RoGOeLSt--dZl-13" value="dev" style="edgeLabel;html=1;align=center;verticalAlign=middle;resizable=0;points=[];fontColor=#4D9900;" vertex="1" connectable="0" parent="VFErN84RoGOeLSt--dZl-12">
          <mxGeometry x="-0.9392" y="-2" relative="1" as="geometry">
            <mxPoint x="-42" y="-2" as="offset" />
          </mxGeometry>
        </mxCell>
        <mxCell id="VFErN84RoGOeLSt--dZl-16" value="Start von Woche 1" style="rounded=0;whiteSpace=wrap;html=1;labelBackgroundColor=#CCFFCC;labelBorderColor=default;fontSize=11;strokeColor=none;fillColor=default;fontColor=#333333;" vertex="1" parent="1">
          <mxGeometry x="-40" y="660" width="80" height="30" as="geometry" />
        </mxCell>
        <mxCell id="VFErN84RoGOeLSt--dZl-17" value="" style="endArrow=none;html=1;shadow=0;fontSize=11;fontColor=#000000;strokeColor=default;strokeWidth=1;curved=1;dashed=1;" edge="1" parent="1">
          <mxGeometry width="50" height="50" relative="1" as="geometry">
            <mxPoint y="660" as="sourcePoint" />
            <mxPoint y="360" as="targetPoint" />
          </mxGeometry>
        </mxCell>
        <mxCell id="VFErN84RoGOeLSt--dZl-40" style="edgeStyle=orthogonalEdgeStyle;orthogonalLoop=1;jettySize=auto;html=1;exitX=0;exitY=0.5;exitDx=0;exitDy=0;fontColor=#007FFF;startArrow=none;startFill=0;endArrow=none;endFill=0;fillColor=#d5e8d4;strokeColor=#82b366;strokeWidth=3;curved=1;entryX=1;entryY=0.5;entryDx=0;entryDy=0;" edge="1" parent="1" source="VFErN84RoGOeLSt--dZl-43" target="VFErN84RoGOeLSt--dZl-74">
          <mxGeometry relative="1" as="geometry">
            <mxPoint x="10" y="560" as="targetPoint" />
          </mxGeometry>
        </mxCell>
        <mxCell id="VFErN84RoGOeLSt--dZl-41" value="erstellen&amp;nbsp;&lt;i style=&quot;font-size: 8px;&quot;&gt;dev&lt;/i&gt;" style="edgeLabel;html=1;align=center;verticalAlign=middle;resizable=0;points=[];fontColor=#4D9900;fontSize=8;" vertex="1" connectable="0" parent="VFErN84RoGOeLSt--dZl-40">
          <mxGeometry x="0.3143" y="-2" relative="1" as="geometry">
            <mxPoint x="27" y="35" as="offset" />
          </mxGeometry>
        </mxCell>
        <mxCell id="VFErN84RoGOeLSt--dZl-42" style="edgeStyle=orthogonalEdgeStyle;curved=1;orthogonalLoop=1;jettySize=auto;html=1;exitX=1;exitY=0.5;exitDx=0;exitDy=0;entryX=0;entryY=0.5;entryDx=0;entryDy=0;fontColor=#4D9900;startArrow=none;startFill=0;endArrow=none;endFill=0;strokeColor=#82b366;strokeWidth=3;fillColor=#d5e8d4;" edge="1" parent="1" source="VFErN84RoGOeLSt--dZl-43" target="VFErN84RoGOeLSt--dZl-47">
          <mxGeometry relative="1" as="geometry" />
        </mxCell>
        <mxCell id="VFErN84RoGOeLSt--dZl-43" value="" style="ellipse;whiteSpace=wrap;html=1;aspect=fixed;fillColor=#d5e8d4;strokeColor=#82b366;" vertex="1" parent="1">
          <mxGeometry x="70" y="550" width="20" height="20" as="geometry" />
        </mxCell>
        <mxCell id="VFErN84RoGOeLSt--dZl-44" style="edgeStyle=orthogonalEdgeStyle;curved=1;orthogonalLoop=1;jettySize=auto;html=1;exitX=1;exitY=0.5;exitDx=0;exitDy=0;entryX=0;entryY=0.5;entryDx=0;entryDy=0;fontColor=#4D9900;startArrow=none;startFill=0;endArrow=none;endFill=0;strokeColor=#9673a6;strokeWidth=3;fillColor=#e1d5e7;" edge="1" parent="1" source="VFErN84RoGOeLSt--dZl-47" target="VFErN84RoGOeLSt--dZl-50">
          <mxGeometry relative="1" as="geometry" />
        </mxCell>
        <mxCell id="VFErN84RoGOeLSt--dZl-45" value="&lt;font style=&quot;font-size: 9px;&quot; color=&quot;#9933ff&quot;&gt;erstellen von f1&lt;/font&gt;" style="edgeLabel;html=1;align=center;verticalAlign=middle;resizable=0;points=[];fontColor=#4D9900;fontSize=9;" vertex="1" connectable="0" parent="VFErN84RoGOeLSt--dZl-44">
          <mxGeometry x="0.0103" y="-1" relative="1" as="geometry">
            <mxPoint as="offset" />
          </mxGeometry>
        </mxCell>
        <mxCell id="VFErN84RoGOeLSt--dZl-46" style="edgeStyle=orthogonalEdgeStyle;curved=1;orthogonalLoop=1;jettySize=auto;html=1;exitX=1;exitY=0.5;exitDx=0;exitDy=0;shadow=0;fontColor=#7F00FF;startArrow=none;startFill=0;endArrow=none;endFill=0;strokeColor=#82b366;strokeWidth=3;fillColor=#d5e8d4;" edge="1" parent="1" source="VFErN84RoGOeLSt--dZl-47">
          <mxGeometry relative="1" as="geometry">
            <mxPoint x="230" y="560" as="targetPoint" />
          </mxGeometry>
        </mxCell>
        <mxCell id="VFErN84RoGOeLSt--dZl-47" value="" style="ellipse;whiteSpace=wrap;html=1;aspect=fixed;fillColor=#d5e8d4;strokeColor=#82b366;" vertex="1" parent="1">
          <mxGeometry x="150.97" y="550" width="20" height="20" as="geometry" />
        </mxCell>
        <mxCell id="VFErN84RoGOeLSt--dZl-48" style="edgeStyle=orthogonalEdgeStyle;curved=1;orthogonalLoop=1;jettySize=auto;html=1;exitX=1;exitY=0.5;exitDx=0;exitDy=0;entryX=0;entryY=0.5;entryDx=0;entryDy=0;shadow=0;fontSize=8;fontColor=#9933FF;startArrow=none;startFill=0;endArrow=none;endFill=0;strokeColor=#9673a6;strokeWidth=3;fillColor=#e1d5e7;" edge="1" parent="1" source="VFErN84RoGOeLSt--dZl-50" target="VFErN84RoGOeLSt--dZl-57">
          <mxGeometry relative="1" as="geometry" />
        </mxCell>
        <mxCell id="VFErN84RoGOeLSt--dZl-49" value="commit f1" style="edgeLabel;html=1;align=center;verticalAlign=bottom;resizable=0;points=[];fontSize=8;fontColor=#9933FF;horizontal=1;" vertex="1" connectable="0" parent="VFErN84RoGOeLSt--dZl-48">
          <mxGeometry x="-0.3548" relative="1" as="geometry">
            <mxPoint x="10" as="offset" />
          </mxGeometry>
        </mxCell>
        <mxCell id="VFErN84RoGOeLSt--dZl-50" value="f1" style="ellipse;whiteSpace=wrap;html=1;aspect=fixed;fontSize=10;fillColor=#e1d5e7;strokeColor=#9673a6;" vertex="1" parent="1">
          <mxGeometry x="230.00000000000014" y="630" width="20" height="20" as="geometry" />
        </mxCell>
        <mxCell id="VFErN84RoGOeLSt--dZl-51" value="&lt;font style=&quot;font-size: 8px;&quot; color=&quot;#7f00ff&quot;&gt;erstellen von f2&lt;/font&gt;" style="edgeStyle=orthogonalEdgeStyle;curved=1;orthogonalLoop=1;jettySize=auto;html=1;exitX=1;exitY=0.5;exitDx=0;exitDy=0;entryX=0;entryY=0.5;entryDx=0;entryDy=0;shadow=0;fontColor=#4D9900;startArrow=none;startFill=0;endArrow=none;endFill=0;strokeColor=#9673a6;strokeWidth=3;fillColor=#e1d5e7;" edge="1" parent="1" source="VFErN84RoGOeLSt--dZl-52" target="VFErN84RoGOeLSt--dZl-55">
          <mxGeometry relative="1" as="geometry" />
        </mxCell>
        <mxCell id="VFErN84RoGOeLSt--dZl-52" value="" style="ellipse;whiteSpace=wrap;html=1;aspect=fixed;fillColor=#d5e8d4;strokeColor=#82b366;" vertex="1" parent="1">
          <mxGeometry x="230" y="550" width="20" height="20" as="geometry" />
        </mxCell>
        <mxCell id="VFErN84RoGOeLSt--dZl-53" value="" style="edgeStyle=orthogonalEdgeStyle;curved=1;orthogonalLoop=1;jettySize=auto;html=1;shadow=0;fontSize=8;fontColor=#7F00FF;startArrow=none;startFill=0;endArrow=none;endFill=0;strokeColor=#9673a6;strokeWidth=3;fillColor=#e1d5e7;" edge="1" parent="1" source="VFErN84RoGOeLSt--dZl-55" target="VFErN84RoGOeLSt--dZl-63">
          <mxGeometry relative="1" as="geometry" />
        </mxCell>
        <mxCell id="VFErN84RoGOeLSt--dZl-54" value="commit f2" style="edgeLabel;html=1;align=center;verticalAlign=bottom;resizable=0;points=[];fontSize=8;fontColor=#7F00FF;" vertex="1" connectable="0" parent="VFErN84RoGOeLSt--dZl-53">
          <mxGeometry x="-0.1724" y="-1" relative="1" as="geometry">
            <mxPoint x="10" y="-1" as="offset" />
          </mxGeometry>
        </mxCell>
        <mxCell id="VFErN84RoGOeLSt--dZl-55" value="f2" style="ellipse;whiteSpace=wrap;html=1;aspect=fixed;fontSize=10;fillColor=#e1d5e7;strokeColor=#9673a6;" vertex="1" parent="1">
          <mxGeometry x="312.0000000000001" y="590" width="20" height="20" as="geometry" />
        </mxCell>
        <mxCell id="VFErN84RoGOeLSt--dZl-56" style="edgeStyle=orthogonalEdgeStyle;curved=1;orthogonalLoop=1;jettySize=auto;html=1;exitX=1;exitY=0.5;exitDx=0;exitDy=0;shadow=0;fontSize=8;fontColor=#33001A;startArrow=none;startFill=0;endArrow=none;endFill=0;strokeColor=#9673a6;strokeWidth=3;fillColor=#e1d5e7;" edge="1" parent="1" source="VFErN84RoGOeLSt--dZl-57">
          <mxGeometry relative="1" as="geometry">
            <mxPoint x="560" y="640" as="targetPoint" />
          </mxGeometry>
        </mxCell>
        <mxCell id="VFErN84RoGOeLSt--dZl-57" value="" style="ellipse;whiteSpace=wrap;html=1;aspect=fixed;fontSize=10;fillColor=#e1d5e7;strokeColor=#9673a6;" vertex="1" parent="1">
          <mxGeometry x="312.0000000000001" y="630" width="20" height="20" as="geometry" />
        </mxCell>
        <mxCell id="VFErN84RoGOeLSt--dZl-58" style="edgeStyle=orthogonalEdgeStyle;curved=1;orthogonalLoop=1;jettySize=auto;html=1;exitX=0;exitY=0.5;exitDx=0;exitDy=0;shadow=0;fontSize=8;fontColor=#7F00FF;startArrow=none;startFill=0;endArrow=none;endFill=0;strokeColor=#82b366;strokeWidth=3;fillColor=#d5e8d4;" edge="1" parent="1" source="VFErN84RoGOeLSt--dZl-60">
          <mxGeometry relative="1" as="geometry">
            <mxPoint x="250" y="560" as="targetPoint" />
          </mxGeometry>
        </mxCell>
        <mxCell id="VFErN84RoGOeLSt--dZl-59" value="" style="edgeStyle=orthogonalEdgeStyle;curved=1;orthogonalLoop=1;jettySize=auto;html=1;shadow=0;fontSize=8;fontColor=#7F00FF;startArrow=none;startFill=0;endArrow=none;endFill=0;strokeColor=#82b366;strokeWidth=3;fillColor=#d5e8d4;" edge="1" parent="1" source="VFErN84RoGOeLSt--dZl-60" target="VFErN84RoGOeLSt--dZl-66">
          <mxGeometry relative="1" as="geometry" />
        </mxCell>
        <mxCell id="VFErN84RoGOeLSt--dZl-60" value="" style="ellipse;whiteSpace=wrap;html=1;aspect=fixed;fillColor=#d5e8d4;strokeColor=#82b366;" vertex="1" parent="1">
          <mxGeometry x="390" y="550" width="20" height="20" as="geometry" />
        </mxCell>
        <mxCell id="VFErN84RoGOeLSt--dZl-61" style="edgeStyle=orthogonalEdgeStyle;curved=1;orthogonalLoop=1;jettySize=auto;html=1;exitX=1;exitY=0.5;exitDx=0;exitDy=0;entryX=0.5;entryY=1;entryDx=0;entryDy=0;shadow=0;fontSize=8;fontColor=#7F00FF;startArrow=none;startFill=0;endArrow=none;endFill=0;strokeColor=#9673a6;strokeWidth=3;fillColor=#e1d5e7;" edge="1" parent="1" source="VFErN84RoGOeLSt--dZl-63" target="VFErN84RoGOeLSt--dZl-66">
          <mxGeometry relative="1" as="geometry" />
        </mxCell>
        <mxCell id="VFErN84RoGOeLSt--dZl-62" value="Merge von&lt;br&gt;&amp;nbsp;&lt;i&gt;f1&lt;/i&gt; in &lt;i&gt;dev&lt;/i&gt;&amp;nbsp;" style="edgeLabel;html=1;align=center;verticalAlign=middle;resizable=0;points=[];fontSize=8;fontColor=#33001A;labelPosition=center;verticalLabelPosition=middle;labelBorderColor=default;labelBackgroundColor=#FFCCFF;" vertex="1" connectable="0" parent="VFErN84RoGOeLSt--dZl-61">
          <mxGeometry x="0.04" y="8" relative="1" as="geometry">
            <mxPoint x="-12" as="offset" />
          </mxGeometry>
        </mxCell>
        <mxCell id="VFErN84RoGOeLSt--dZl-63" value="" style="ellipse;whiteSpace=wrap;html=1;aspect=fixed;fontSize=10;fillColor=#e1d5e7;strokeColor=#9673a6;" vertex="1" parent="1">
          <mxGeometry x="390.0000000000001" y="590" width="20" height="20" as="geometry" />
        </mxCell>
        <mxCell id="VFErN84RoGOeLSt--dZl-66" value="" style="ellipse;whiteSpace=wrap;html=1;aspect=fixed;fillColor=#d5e8d4;strokeColor=#82b366;" vertex="1" parent="1">
          <mxGeometry x="470" y="550" width="20" height="20" as="geometry" />
        </mxCell>
        <mxCell id="VFErN84RoGOeLSt--dZl-70" value="" style="edgeStyle=orthogonalEdgeStyle;curved=1;orthogonalLoop=1;jettySize=auto;html=1;shadow=0;fontSize=8;fontColor=#33001A;startArrow=none;startFill=0;endArrow=none;endFill=0;strokeColor=#6c8ebf;strokeWidth=3;fillColor=#dae8fc;" edge="1" parent="1" source="VFErN84RoGOeLSt--dZl-83" target="VFErN84RoGOeLSt--dZl-74">
          <mxGeometry relative="1" as="geometry" />
        </mxCell>
        <mxCell id="VFErN84RoGOeLSt--dZl-73" value="erstellen von &lt;i&gt;master&lt;/i&gt;" style="edgeLabel;html=1;align=center;verticalAlign=middle;resizable=0;points=[];fontSize=8;fontColor=#0000FF;" vertex="1" connectable="0" parent="1">
          <mxGeometry x="-50" y="390" as="geometry" />
        </mxCell>
        <mxCell id="VFErN84RoGOeLSt--dZl-74" value="0.0" style="ellipse;whiteSpace=wrap;html=1;aspect=fixed;fillColor=#dae8fc;strokeColor=#6c8ebf;fontStyle=1;labelPosition=center;verticalLabelPosition=top;align=center;verticalAlign=bottom;fontColor=#0066CC;" vertex="1" parent="1">
          <mxGeometry x="-9" y="390" width="20" height="20" as="geometry" />
        </mxCell>
        <mxCell id="VFErN84RoGOeLSt--dZl-79" style="edgeStyle=orthogonalEdgeStyle;curved=1;orthogonalLoop=1;jettySize=auto;html=1;exitX=1;exitY=0.5;exitDx=0;exitDy=0;shadow=0;fontSize=8;fontColor=#FF9933;startArrow=none;startFill=0;endArrow=none;endFill=0;strokeColor=#d79b00;strokeWidth=3;fillColor=#ffe6cc;" edge="1" parent="1" source="VFErN84RoGOeLSt--dZl-80">
          <mxGeometry relative="1" as="geometry">
            <mxPoint x="560" y="480" as="targetPoint" />
          </mxGeometry>
        </mxCell>
        <mxCell id="VFErN84RoGOeLSt--dZl-80" value="" style="ellipse;whiteSpace=wrap;html=1;aspect=fixed;fontSize=10;labelPosition=center;verticalLabelPosition=top;align=center;verticalAlign=bottom;fillColor=#ffe6cc;strokeColor=#d79b00;fontColor=#FFB570;" vertex="1" parent="1">
          <mxGeometry x="389.97000000000014" y="470" width="20" height="20" as="geometry" />
        </mxCell>
        <mxCell id="VFErN84RoGOeLSt--dZl-81" style="edgeStyle=orthogonalEdgeStyle;curved=1;orthogonalLoop=1;jettySize=auto;html=1;exitX=0.5;exitY=1;exitDx=0;exitDy=0;entryX=0;entryY=0.5;entryDx=0;entryDy=0;shadow=0;fontSize=8;fontColor=#FF9933;startArrow=none;startFill=0;endArrow=none;endFill=0;strokeColor=#d79b00;strokeWidth=3;fillColor=#ffe6cc;" edge="1" parent="1" source="VFErN84RoGOeLSt--dZl-83" target="VFErN84RoGOeLSt--dZl-80">
          <mxGeometry relative="1" as="geometry" />
        </mxCell>
        <mxCell id="VFErN84RoGOeLSt--dZl-82" value="Erstellen von &lt;br&gt;&lt;i&gt;Release &lt;/i&gt;Branch" style="edgeLabel;html=1;align=center;verticalAlign=middle;resizable=0;points=[];fontSize=8;fontColor=#FF8000;labelBackgroundColor=default;" vertex="1" connectable="0" parent="VFErN84RoGOeLSt--dZl-81">
          <mxGeometry x="-0.2856" y="16" relative="1" as="geometry">
            <mxPoint x="-4" y="-10" as="offset" />
          </mxGeometry>
        </mxCell>
        <mxCell id="VFErN84RoGOeLSt--dZl-83" value="" style="ellipse;whiteSpace=wrap;html=1;aspect=fixed;fillColor=#dae8fc;strokeColor=#6c8ebf;fontStyle=1;labelPosition=center;verticalLabelPosition=top;align=center;verticalAlign=bottom;fontColor=#0066CC;" vertex="1" parent="1">
          <mxGeometry x="70" y="390" width="20" height="20" as="geometry" />
        </mxCell>
        <mxCell id="VFErN84RoGOeLSt--dZl-84" value="" style="edgeStyle=orthogonalEdgeStyle;curved=1;orthogonalLoop=1;jettySize=auto;html=1;shadow=0;fontSize=8;fontColor=#33001A;startArrow=none;startFill=0;endArrow=none;endFill=0;strokeColor=#6c8ebf;strokeWidth=3;fillColor=#dae8fc;" edge="1" parent="1" target="VFErN84RoGOeLSt--dZl-83">
          <mxGeometry relative="1" as="geometry">
            <mxPoint x="560" y="400" as="sourcePoint" />
            <mxPoint x="11" y="400" as="targetPoint" />
          </mxGeometry>
        </mxCell>
        <mxCell id="VFErN84RoGOeLSt--dZl-98" value="commit f2" style="edgeLabel;html=1;align=center;verticalAlign=bottom;resizable=0;points=[];fontSize=8;fontColor=#9933FF;horizontal=1;" vertex="1" connectable="0" parent="1">
          <mxGeometry x="444.6600000000002" y="640" as="geometry" />
        </mxCell>
        <mxCell id="VFErN84RoGOeLSt--dZl-132" value="" style="edgeStyle=orthogonalEdgeStyle;curved=1;orthogonalLoop=1;jettySize=auto;html=1;shadow=0;fontSize=8;fontColor=#7F00FF;startArrow=none;startFill=0;endArrow=none;endFill=0;strokeColor=#82b366;strokeWidth=3;fillColor=#d5e8d4;exitX=1;exitY=0.5;exitDx=0;exitDy=0;" edge="1" parent="1" source="VFErN84RoGOeLSt--dZl-66">
          <mxGeometry relative="1" as="geometry">
            <mxPoint x="420" y="570" as="sourcePoint" />
            <mxPoint x="560" y="560" as="targetPoint" />
          </mxGeometry>
        </mxCell>
      </root>
    </mxGraphModel>
  </diagram>
</mxfile>
